# xmcd CD database file
#
# Track frame offsets:
#	150
#	20112
#	41615
#	61095
#	82382
#	107885
#	129910
#	149405
#	167622
#	186400
#	212805
#	235950
#	255692
#	280900
#	301047
#
# Disc length: 4292 seconds
#
# Revision: 5
# Processed by: cddbd v1.4PL0 Copyright (c) Steve Scherf et al.
# Submitted via: CDex 1.51
#
DISCID=dc10c20f
DTITLE=3rd Force - Collective Force
DYEAR=2000
DGENRE=New Age
TTITLE0=Dance With Me
TTITLE1=Sweet Surrender
TTITLE2=Bridge of Dreams
TTITLE3=In The Full Moon Light
TTITLE4=You Gotta Be Real
TTITLE5=You Know My Heart
TTITLE6=Something Special
TTITLE7=Coming Home
TTITLE8=Listen To Your Heart
TTITLE9=Here Comes The Night
TTITLE10=Revelation Of The Heart
TTITLE11=No Doubt
TTITLE12=Give It All You Got
TTITLE13=The Gift
TTITLE14=Lift Me Higher
EXTD=YEAR: 2000
EXTT0=
EXTT1=
EXTT2=
EXTT3=
EXTT4=
EXTT5=
EXTT6=
EXTT7=
EXTT8=
EXTT9=
EXTT10=
EXTT11=
EXTT12=
EXTT13=
EXTT14=
PLAYORDER=
